<svg width="195" height="54" viewBox="0 0 195 54" fill="none" xmlns="http://www.w3.org/2000/svg">
<rect x="0.5" y="0.5" width="193.81" height="53" rx="4.5" fill="black"/>
<rect x="0.5" y="0.5" width="193.81" height="53" rx="4.5" stroke="#A6A6A6"/>
<path d="M39.5586 28.156C39.5163 23.5632 43.4095 21.3288 43.5876 21.2248C41.3826 18.0855 37.9651 17.6566 36.7641 17.6224C33.8938 17.3274 31.1095 19.2996 29.6473 19.2996C28.1559 19.2996 25.9043 17.6509 23.4775 17.6993C20.3547 17.7463 17.4333 19.5119 15.8311 22.2536C12.5243 27.8439 14.9905 36.059 18.1585 40.5777C19.7433 42.7907 21.5951 45.2617 24.0189 45.1747C26.3903 45.0793 27.276 43.6984 30.1377 43.6984C32.9729 43.6984 33.8047 45.1747 36.2767 45.1192C38.8216 45.0793 40.4239 42.8962 41.9533 40.6632C43.7846 38.1267 44.5201 35.6287 44.5493 35.5004C44.4894 35.4805 39.6068 33.6607 39.5586 28.156Z" fill="white"/>
<path d="M34.8882 14.6498C36.1636 13.0923 37.0363 10.9733 36.794 8.82303C34.9481 8.90283 32.6395 10.0699 31.3102 11.5932C30.134 12.9355 29.0833 15.1357 29.3547 17.2048C31.4284 17.3559 33.5574 16.1831 34.8882 14.6498Z" fill="white"/>
<path d="M56.1284 11.2102V10.2727H62.6738V11.2102H59.9295V19H58.8727V11.2102H56.1284ZM65.9636 19.1364C65.3329 19.1364 64.7889 18.9972 64.3315 18.7188C63.877 18.4375 63.5261 18.0455 63.2789 17.5426C63.0346 17.0369 62.9125 16.4489 62.9125 15.7784C62.9125 15.108 63.0346 14.517 63.2789 14.0057C63.5261 13.4915 63.8699 13.0909 64.3102 12.804C64.7534 12.5142 65.2704 12.3693 65.8613 12.3693C66.2022 12.3693 66.5389 12.4261 66.8713 12.5398C67.2037 12.6534 67.5062 12.8381 67.7789 13.0938C68.0517 13.3466 68.269 13.6818 68.4309 14.0994C68.5929 14.517 68.6738 15.0312 68.6738 15.642V16.0682H63.6284V15.1989H67.6511C67.6511 14.8295 67.5772 14.5 67.4295 14.2102C67.2846 13.9205 67.0772 13.6918 66.8074 13.5241C66.5403 13.3565 66.225 13.2727 65.8613 13.2727C65.4608 13.2727 65.1142 13.3722 64.8216 13.571C64.5318 13.767 64.3088 14.0227 64.1525 14.3381C63.9963 14.6534 63.9181 14.9915 63.9181 15.3523V15.9318C63.9181 16.4261 64.0034 16.8452 64.1738 17.1889C64.3471 17.5298 64.5872 17.7898 64.894 17.9688C65.2008 18.1449 65.5574 18.233 65.9636 18.233C66.2278 18.233 66.4664 18.196 66.6795 18.1222C66.8954 18.0455 67.0815 17.9318 67.2377 17.7812C67.394 17.6278 67.5147 17.4375 67.6 17.2102L68.5716 17.483C68.4693 17.8125 68.2974 18.1023 68.0559 18.3523C67.8145 18.5994 67.5162 18.7926 67.161 18.9318C66.8059 19.0682 66.4068 19.1364 65.9636 19.1364ZM65.35 11.5682L66.3897 9.59091H67.5659L66.2363 11.5682H65.35ZM71.2093 10.2727V19H70.2037V10.2727H71.2093ZM75.7956 19.1364C75.165 19.1364 74.6209 18.9972 74.1635 18.7188C73.709 18.4375 73.3581 18.0455 73.111 17.5426C72.8667 17.0369 72.7445 16.4489 72.7445 15.7784C72.7445 15.108 72.8667 14.517 73.111 14.0057C73.3581 13.4915 73.7019 13.0909 74.1422 12.804C74.5854 12.5142 75.1025 12.3693 75.6934 12.3693C76.0343 12.3693 76.3709 12.4261 76.7033 12.5398C77.0357 12.6534 77.3382 12.8381 77.611 13.0938C77.8837 13.3466 78.101 13.6818 78.263 14.0994C78.4249 14.517 78.5059 15.0312 78.5059 15.642V16.0682H73.4604V15.1989H77.4831C77.4831 14.8295 77.4093 14.5 77.2615 14.2102C77.1167 13.9205 76.9093 13.6918 76.6394 13.5241C76.3723 13.3565 76.057 13.2727 75.6934 13.2727C75.2928 13.2727 74.9462 13.3722 74.6536 13.571C74.3638 13.767 74.1408 14.0227 73.9846 14.3381C73.8283 14.6534 73.7502 14.9915 73.7502 15.3523V15.9318C73.7502 16.4261 73.8354 16.8452 74.0059 17.1889C74.1792 17.5298 74.4192 17.7898 74.726 17.9688C75.0328 18.1449 75.3894 18.233 75.7956 18.233C76.0598 18.233 76.2985 18.196 76.5115 18.1222C76.7275 18.0455 76.9135 17.9318 77.0698 17.7812C77.226 17.6278 77.3468 17.4375 77.432 17.2102L78.4036 17.483C78.3013 17.8125 78.1294 18.1023 77.888 18.3523C77.6465 18.5994 77.3482 18.7926 76.9931 18.9318C76.638 19.0682 76.2388 19.1364 75.7956 19.1364ZM75.182 11.5682L76.2218 9.59091H77.3979L76.0684 11.5682H75.182ZM82.6948 19.1364C82.0811 19.1364 81.5527 18.9915 81.1096 18.7017C80.6664 18.4119 80.3255 18.0128 80.0868 17.5043C79.8482 16.9957 79.7289 16.4148 79.7289 15.7614C79.7289 15.0966 79.851 14.5099 80.0953 14.0014C80.3425 13.4901 80.6863 13.0909 81.1266 12.804C81.5698 12.5142 82.0868 12.3693 82.6777 12.3693C83.138 12.3693 83.5527 12.4545 83.9221 12.625C84.2914 12.7955 84.5939 13.0341 84.8297 13.3409C85.0655 13.6477 85.2118 14.0057 85.2686 14.4148H84.263C84.1863 14.1165 84.0158 13.8523 83.7516 13.6222C83.4902 13.3892 83.138 13.2727 82.6948 13.2727C82.3027 13.2727 81.959 13.375 81.6635 13.5795C81.3709 13.7812 81.1422 14.0668 80.9775 14.4361C80.8155 14.8026 80.7346 15.233 80.7346 15.7273C80.7346 16.233 80.8141 16.6733 80.9732 17.0483C81.1351 17.4233 81.3624 17.7145 81.655 17.9219C81.9505 18.1293 82.2971 18.233 82.6948 18.233C82.9561 18.233 83.1934 18.1875 83.4064 18.0966C83.6195 18.0057 83.7999 17.875 83.9476 17.7045C84.0953 17.5341 84.2005 17.3295 84.263 17.0909H85.2686C85.2118 17.4773 85.0712 17.8253 84.8468 18.1349C84.6252 18.4418 84.3311 18.6861 83.9647 18.8679C83.601 19.0469 83.1777 19.1364 82.6948 19.1364ZM87.7445 15.0625V19H86.7388V10.2727H87.7445V13.4773H87.8297C87.9831 13.1392 88.2132 12.8707 88.5201 12.6719C88.8297 12.4702 89.2417 12.3693 89.7559 12.3693C90.2019 12.3693 90.5925 12.4588 90.9277 12.6378C91.263 12.8139 91.5229 13.0852 91.7076 13.4517C91.8951 13.8153 91.9888 14.2784 91.9888 14.8409V19H90.9831V14.9091C90.9831 14.3892 90.8482 13.9872 90.5783 13.7031C90.3113 13.4162 89.9405 13.2727 89.4661 13.2727C89.1365 13.2727 88.8411 13.3423 88.5797 13.4815C88.3212 13.6207 88.1167 13.8239 87.9661 14.0909C87.8184 14.358 87.7445 14.6818 87.7445 15.0625ZM95.7548 19.1534C95.34 19.1534 94.9636 19.0753 94.6255 18.919C94.2875 18.7599 94.019 18.5312 93.8201 18.233C93.6213 17.9318 93.5218 17.5682 93.5218 17.142C93.5218 16.767 93.5957 16.4631 93.7434 16.2301C93.8912 15.9943 94.0886 15.8097 94.3358 15.6761C94.5829 15.5426 94.8556 15.4432 95.1539 15.3778C95.4551 15.3097 95.7576 15.2557 96.0616 15.2159C96.4593 15.1648 96.7818 15.1264 97.0289 15.1009C97.2789 15.0724 97.4608 15.0256 97.5744 14.9602C97.6909 14.8949 97.7491 14.7812 97.7491 14.6193V14.5852C97.7491 14.1648 97.6341 13.8381 97.4039 13.6051C97.1767 13.3722 96.8315 13.2557 96.3684 13.2557C95.8883 13.2557 95.5119 13.3608 95.2392 13.571C94.9664 13.7812 94.7747 14.0057 94.6639 14.2443L93.7093 13.9034C93.8798 13.5057 94.1071 13.196 94.3912 12.9744C94.6781 12.75 94.9906 12.5937 95.3287 12.5057C95.6696 12.4148 96.0048 12.3693 96.3343 12.3693C96.5446 12.3693 96.786 12.3949 97.0588 12.446C97.3343 12.4943 97.6 12.5952 97.8556 12.7486C98.1142 12.902 98.3287 13.1335 98.4991 13.4432C98.6696 13.7528 98.7548 14.1676 98.7548 14.6875V19H97.7491V18.1136H97.698C97.6298 18.2557 97.5162 18.4077 97.3571 18.5696C97.198 18.7315 96.9863 18.8693 96.7221 18.983C96.4579 19.0966 96.1355 19.1534 95.7548 19.1534ZM95.9082 18.25C96.3059 18.25 96.6412 18.1719 96.9139 18.0156C97.1895 17.8594 97.3968 17.6577 97.536 17.4105C97.6781 17.1634 97.7491 16.9034 97.7491 16.6307V15.7102C97.7065 15.7614 97.6127 15.8082 97.4679 15.8509C97.3258 15.8906 97.161 15.9261 96.9735 15.9574C96.7889 15.9858 96.6085 16.0114 96.4324 16.0341C96.2591 16.054 96.1184 16.071 96.0105 16.0852C95.7491 16.1193 95.5048 16.1747 95.2775 16.2514C95.0531 16.3253 94.8713 16.4375 94.7321 16.5881C94.5957 16.7358 94.5275 16.9375 94.5275 17.1932C94.5275 17.5426 94.6568 17.8068 94.9153 17.9858C95.1767 18.1619 95.5076 18.25 95.9082 18.25ZM100.59 19V12.4545H101.562V13.4432H101.63C101.749 13.1193 101.965 12.8565 102.278 12.6548C102.59 12.4531 102.943 12.3523 103.335 12.3523C103.409 12.3523 103.501 12.3537 103.612 12.3565C103.722 12.3594 103.806 12.3636 103.863 12.3693V13.392C103.829 13.3835 103.751 13.3707 103.629 13.3537C103.509 13.3338 103.383 13.3239 103.249 13.3239C102.931 13.3239 102.647 13.3906 102.397 13.5241C102.15 13.6548 101.954 13.8366 101.809 14.0696C101.667 14.2997 101.596 14.5625 101.596 14.858V19H100.59ZM107.498 21.5909C107.012 21.5909 106.595 21.5284 106.245 21.4034C105.896 21.2812 105.605 21.1193 105.372 20.9176C105.142 20.7188 104.958 20.5057 104.822 20.2784L105.623 19.7159C105.714 19.8352 105.829 19.9716 105.968 20.125C106.107 20.2812 106.298 20.4162 106.539 20.5298C106.784 20.6463 107.103 20.7045 107.498 20.7045C108.026 20.7045 108.463 20.5767 108.806 20.321C109.15 20.0653 109.322 19.6648 109.322 19.1193V17.7898H109.237C109.163 17.9091 109.058 18.0568 108.921 18.233C108.788 18.4062 108.595 18.5611 108.342 18.6974C108.092 18.831 107.754 18.8977 107.328 18.8977C106.799 18.8977 106.325 18.7727 105.904 18.5227C105.487 18.2727 105.156 17.9091 104.911 17.4318C104.67 16.9545 104.549 16.375 104.549 15.6932C104.549 15.0227 104.667 14.4389 104.903 13.9418C105.139 13.4418 105.467 13.0554 105.887 12.7827C106.308 12.5071 106.794 12.3693 107.345 12.3693C107.771 12.3693 108.109 12.4403 108.359 12.5824C108.612 12.7216 108.805 12.8807 108.938 13.0597C109.075 13.2358 109.18 13.3807 109.254 13.4943H109.356V12.4545H110.328V19.1875C110.328 19.75 110.2 20.2074 109.944 20.5597C109.691 20.9148 109.35 21.1747 108.921 21.3395C108.495 21.5071 108.021 21.5909 107.498 21.5909ZM107.464 17.9943C107.867 17.9943 108.208 17.902 108.487 17.7173C108.765 17.5327 108.977 17.267 109.122 16.9205C109.267 16.5739 109.339 16.1591 109.339 15.6761C109.339 15.2045 109.268 14.7884 109.126 14.4276C108.984 14.0668 108.774 13.7841 108.495 13.5795C108.217 13.375 107.873 13.2727 107.464 13.2727C107.038 13.2727 106.683 13.3807 106.399 13.5966C106.117 13.8125 105.906 14.1023 105.764 14.4659C105.624 14.8295 105.555 15.233 105.555 15.6761C105.555 16.1307 105.626 16.5327 105.768 16.8821C105.913 17.2287 106.126 17.5014 106.407 17.7003C106.691 17.8963 107.044 17.9943 107.464 17.9943ZM114.913 19.1364C114.282 19.1364 113.738 18.9972 113.281 18.7188C112.826 18.4375 112.475 18.0455 112.228 17.5426C111.984 17.0369 111.862 16.4489 111.862 15.7784C111.862 15.108 111.984 14.517 112.228 14.0057C112.475 13.4915 112.819 13.0909 113.259 12.804C113.703 12.5142 114.22 12.3693 114.811 12.3693C115.151 12.3693 115.488 12.4261 115.82 12.5398C116.153 12.6534 116.455 12.8381 116.728 13.0938C117.001 13.3466 117.218 13.6818 117.38 14.0994C117.542 14.517 117.623 15.0312 117.623 15.642V16.0682H112.578V15.1989H116.6C116.6 14.8295 116.526 14.5 116.379 14.2102C116.234 13.9205 116.026 13.6918 115.757 13.5241C115.49 13.3565 115.174 13.2727 114.811 13.2727C114.41 13.2727 114.063 13.3722 113.771 13.571C113.481 13.767 113.258 14.0227 113.102 14.3381C112.945 14.6534 112.867 14.9915 112.867 15.3523V15.9318C112.867 16.4261 112.953 16.8452 113.123 17.1889C113.296 17.5298 113.536 17.7898 113.843 17.9688C114.15 18.1449 114.507 18.233 114.913 18.233C115.177 18.233 115.416 18.196 115.629 18.1222C115.845 18.0455 116.031 17.9318 116.187 17.7812C116.343 17.6278 116.464 17.4375 116.549 17.2102L117.521 17.483C117.419 17.8125 117.247 18.1023 117.005 18.3523C116.764 18.5994 116.465 18.7926 116.11 18.9318C115.755 19.0682 115.356 19.1364 114.913 19.1364ZM119.153 19V12.4545H120.124V13.4432H120.193C120.312 13.1193 120.528 12.8565 120.84 12.6548C121.153 12.4531 121.505 12.3523 121.897 12.3523C121.971 12.3523 122.063 12.3537 122.174 12.3565C122.285 12.3594 122.369 12.3636 122.426 12.3693V13.392C122.392 13.3835 122.313 13.3707 122.191 13.3537C122.072 13.3338 121.945 13.3239 121.812 13.3239C121.494 13.3239 121.21 13.3906 120.96 13.5241C120.713 13.6548 120.517 13.8366 120.372 14.0696C120.23 14.2997 120.159 14.5625 120.159 14.858V19H119.153ZM131.629 13.9205L130.726 14.1761C130.669 14.0256 130.585 13.8793 130.474 13.7372C130.366 13.5923 130.219 13.473 130.031 13.3793C129.844 13.2855 129.604 13.2386 129.311 13.2386C128.91 13.2386 128.577 13.331 128.309 13.5156C128.045 13.6974 127.913 13.929 127.913 14.2102C127.913 14.4602 128.004 14.6577 128.186 14.8026C128.368 14.9474 128.652 15.0682 129.038 15.1648L130.01 15.4034C130.595 15.5455 131.031 15.7628 131.318 16.0554C131.605 16.3452 131.748 16.7187 131.748 17.1761C131.748 17.5511 131.64 17.8864 131.425 18.1818C131.211 18.4773 130.913 18.7102 130.53 18.8807C130.146 19.0511 129.7 19.1364 129.192 19.1364C128.524 19.1364 127.971 18.9915 127.534 18.7017C127.096 18.4119 126.819 17.9886 126.703 17.4318L127.657 17.1932C127.748 17.5455 127.92 17.8097 128.173 17.9858C128.429 18.1619 128.763 18.25 129.175 18.25C129.643 18.25 130.015 18.1506 130.291 17.9517C130.569 17.75 130.709 17.5085 130.709 17.2273C130.709 17 130.629 16.8097 130.47 16.6562C130.311 16.5 130.067 16.3835 129.737 16.3068L128.646 16.0511C128.047 15.9091 127.606 15.6889 127.325 15.3906C127.047 15.0895 126.907 14.7131 126.907 14.2614C126.907 13.892 127.011 13.5653 127.219 13.2812C127.429 12.9972 127.714 12.7741 128.075 12.6122C128.439 12.4503 128.851 12.3693 129.311 12.3693C129.959 12.3693 130.467 12.5114 130.836 12.7955C131.209 13.0795 131.473 13.4545 131.629 13.9205ZM137.387 16.3239V12.4545H138.393V19H137.387V17.892H137.319C137.166 18.2244 136.927 18.5071 136.603 18.7401C136.279 18.9702 135.87 19.0852 135.376 19.0852C134.967 19.0852 134.603 18.9957 134.285 18.8168C133.967 18.6349 133.717 18.3622 133.535 17.9986C133.353 17.6321 133.262 17.1705 133.262 16.6136V12.4545H134.268V16.5455C134.268 17.0227 134.401 17.4034 134.669 17.6875C134.938 17.9716 135.282 18.1136 135.7 18.1136C135.95 18.1136 136.204 18.0497 136.463 17.9219C136.724 17.794 136.943 17.598 137.119 17.3338C137.298 17.0696 137.387 16.733 137.387 16.3239ZM140.235 19V12.4545H141.206V13.4432H141.275C141.394 13.1193 141.61 12.8565 141.922 12.6548C142.235 12.4531 142.587 12.3523 142.979 12.3523C143.053 12.3523 143.145 12.3537 143.256 12.3565C143.367 12.3594 143.451 12.3636 143.508 12.3693V13.392C143.474 13.3835 143.395 13.3707 143.273 13.3537C143.154 13.3338 143.028 13.3239 142.894 13.3239C142.576 13.3239 142.292 13.3906 142.042 13.5241C141.795 13.6548 141.599 13.8366 141.454 14.0696C141.312 14.2997 141.241 14.5625 141.241 14.858V19H140.235Z" fill="white"/>
<path d="M59.0165 42H56.0634L61.4402 26.7273H64.8556L70.2399 42H67.2868L63.2076 29.8594H63.0882L59.0165 42ZM59.1135 36.0117H67.1674V38.234H59.1135V36.0117ZM72.1322 46.2955V30.5455H74.787V32.4396H74.9436C75.0828 32.1612 75.2792 31.8654 75.5328 31.5522C75.7863 31.234 76.1294 30.9631 76.5619 30.7393C76.9944 30.5107 77.5463 30.3963 78.2174 30.3963C79.1024 30.3963 79.9003 30.6225 80.6112 31.0749C81.3271 31.5224 81.8939 32.1861 82.3115 33.0661C82.7341 33.9411 82.9454 35.0149 82.9454 36.2876C82.9454 37.5455 82.7391 38.6143 82.3264 39.4943C81.9138 40.3743 81.352 41.0455 80.6411 41.5078C79.9301 41.9702 79.1247 42.2013 78.2249 42.2013C77.5686 42.2013 77.0242 42.092 76.5917 41.8732C76.1592 41.6545 75.8112 41.391 75.5477 41.0827C75.2892 40.7695 75.0878 40.4737 74.9436 40.1953H74.8318V46.2955H72.1322ZM74.7796 36.2727C74.7796 37.0135 74.884 37.6623 75.0928 38.2191C75.3066 38.7759 75.6123 39.2109 76.01 39.5241C76.4127 39.8324 76.8999 39.9865 77.4717 39.9865C78.0683 39.9865 78.5679 39.8274 78.9706 39.5092C79.3733 39.1861 79.6766 38.7461 79.8804 38.1893C80.0892 37.6275 80.1936 36.9886 80.1936 36.2727C80.1936 35.5618 80.0917 34.9304 79.8879 34.3786C79.684 33.8267 79.3808 33.3942 78.9781 33.081C78.5754 32.7678 78.0732 32.6112 77.4717 32.6112C76.895 32.6112 76.4053 32.7628 76.0026 33.0661C75.5999 33.3693 75.2941 33.7944 75.0853 34.3413C74.8815 34.8881 74.7796 35.532 74.7796 36.2727ZM85.2572 46.2955V30.5455H87.912V32.4396H88.0686C88.2078 32.1612 88.4042 31.8654 88.6578 31.5522C88.9113 31.234 89.2544 30.9631 89.6869 30.7393C90.1194 30.5107 90.6713 30.3963 91.3424 30.3963C92.2274 30.3963 93.0253 30.6225 93.7362 31.0749C94.4521 31.5224 95.0189 32.1861 95.4365 33.0661C95.8591 33.9411 96.0704 35.0149 96.0704 36.2876C96.0704 37.5455 95.8641 38.6143 95.4514 39.4943C95.0388 40.3743 94.477 41.0455 93.7661 41.5078C93.0551 41.9702 92.2497 42.2013 91.3499 42.2013C90.6936 42.2013 90.1492 42.092 89.7167 41.8732C89.2842 41.6545 88.9362 41.391 88.6727 41.0827C88.4142 40.7695 88.2128 40.4737 88.0686 40.1953H87.9568V46.2955H85.2572ZM87.9046 36.2727C87.9046 37.0135 88.009 37.6623 88.2178 38.2191C88.4316 38.7759 88.7373 39.2109 89.135 39.5241C89.5377 39.8324 90.0249 39.9865 90.5967 39.9865C91.1933 39.9865 91.6929 39.8274 92.0956 39.5092C92.4983 39.1861 92.8016 38.7461 93.0054 38.1893C93.2142 37.6275 93.3186 36.9886 93.3186 36.2727C93.3186 35.5618 93.2167 34.9304 93.0129 34.3786C92.809 33.8267 92.5058 33.3942 92.1031 33.081C91.7004 32.7678 91.1982 32.6112 90.5967 32.6112C90.02 32.6112 89.5303 32.7628 89.1276 33.0661C88.7249 33.3693 88.4191 33.7944 88.2103 34.3413C88.0065 34.8881 87.9046 35.532 87.9046 36.2727ZM112.011 30.9258C111.941 30.2745 111.648 29.7674 111.131 29.4045C110.619 29.0415 109.952 28.8601 109.132 28.8601C108.555 28.8601 108.061 28.9471 107.648 29.1211C107.235 29.2951 106.92 29.5312 106.701 29.8295C106.482 30.1278 106.37 30.4684 106.365 30.8512C106.365 31.1694 106.437 31.4453 106.582 31.679C106.731 31.9126 106.932 32.1115 107.186 32.2756C107.439 32.4347 107.72 32.5689 108.028 32.6783C108.337 32.7876 108.647 32.8796 108.96 32.9542L110.392 33.3121C110.969 33.4464 111.523 33.6278 112.055 33.8565C112.592 34.0852 113.072 34.3736 113.495 34.7216C113.922 35.0696 114.26 35.4897 114.509 35.9819C114.757 36.4741 114.882 37.0508 114.882 37.712C114.882 38.6069 114.653 39.3949 114.196 40.076C113.738 40.7521 113.077 41.2816 112.212 41.6644C111.352 42.0423 110.31 42.2312 109.087 42.2312C107.899 42.2312 106.867 42.0472 105.992 41.6793C105.122 41.3114 104.441 40.7745 103.949 40.0685C103.462 39.3626 103.198 38.5025 103.159 37.4883H105.881C105.92 38.0202 106.084 38.4627 106.373 38.8157C106.661 39.1687 107.036 39.4322 107.499 39.6062C107.966 39.7802 108.488 39.8672 109.065 39.8672C109.666 39.8672 110.193 39.7777 110.646 39.5987C111.103 39.4148 111.461 39.1612 111.72 38.8381C111.978 38.5099 112.11 38.1271 112.115 37.6896C112.11 37.2919 111.993 36.9638 111.764 36.7053C111.536 36.4418 111.215 36.223 110.802 36.049C110.395 35.87 109.918 35.7109 109.371 35.5717L107.633 35.1243C106.375 34.8011 105.381 34.3114 104.65 33.6552C103.924 32.994 103.561 32.1165 103.561 31.0227C103.561 30.1229 103.805 29.3349 104.292 28.6587C104.784 27.9826 105.453 27.4581 106.298 27.0852C107.143 26.7074 108.1 26.5185 109.169 26.5185C110.253 26.5185 111.203 26.7074 112.018 27.0852C112.838 27.4581 113.482 27.9776 113.949 28.6438C114.417 29.305 114.658 30.0657 114.673 30.9258H112.011ZM122.949 30.5455V32.6335H116.364V30.5455H122.949ZM117.99 27.8011H120.689V38.5547C120.689 38.9176 120.744 39.196 120.853 39.3899C120.968 39.5788 121.117 39.7081 121.301 39.7777C121.485 39.8473 121.688 39.8821 121.912 39.8821C122.081 39.8821 122.235 39.8697 122.374 39.8448C122.519 39.82 122.628 39.7976 122.703 39.7777L123.157 41.8881C123.013 41.9379 122.807 41.9925 122.539 42.0522C122.275 42.1119 121.952 42.1467 121.569 42.1566C120.893 42.1765 120.284 42.0746 119.742 41.8509C119.2 41.6222 118.77 41.2692 118.452 40.7919C118.139 40.3146 117.985 39.718 117.99 39.0021V27.8011ZM130.08 42.2237C128.961 42.2237 127.992 41.9776 127.171 41.4854C126.351 40.9933 125.715 40.3047 125.262 39.4197C124.815 38.5348 124.591 37.5007 124.591 36.3175C124.591 35.1342 124.815 34.0977 125.262 33.2077C125.715 32.3178 126.351 31.6268 127.171 31.1346C127.992 30.6424 128.961 30.3963 130.08 30.3963C131.198 30.3963 132.168 30.6424 132.988 31.1346C133.809 31.6268 134.442 32.3178 134.89 33.2077C135.342 34.0977 135.568 35.1342 135.568 36.3175C135.568 37.5007 135.342 38.5348 134.89 39.4197C134.442 40.3047 133.809 40.9933 132.988 41.4854C132.168 41.9776 131.198 42.2237 130.08 42.2237ZM130.095 40.0611C130.701 40.0611 131.208 39.8945 131.616 39.5614C132.024 39.2234 132.327 38.771 132.526 38.2042C132.73 37.6374 132.832 37.006 132.832 36.31C132.832 35.609 132.73 34.9751 132.526 34.4084C132.327 33.8366 132.024 33.3817 131.616 33.0437C131.208 32.7056 130.701 32.5366 130.095 32.5366C129.473 32.5366 128.956 32.7056 128.544 33.0437C128.136 33.3817 127.83 33.8366 127.626 34.4084C127.427 34.9751 127.328 35.609 127.328 36.31C127.328 37.006 127.427 37.6374 127.626 38.2042C127.83 38.771 128.136 39.2234 128.544 39.5614C128.956 39.8945 129.473 40.0611 130.095 40.0611ZM137.86 42V30.5455H140.477V32.4545H140.597C140.805 31.7933 141.163 31.2837 141.67 30.9258C142.183 30.5629 142.767 30.3814 143.423 30.3814C143.572 30.3814 143.739 30.3888 143.923 30.4038C144.112 30.4137 144.268 30.4311 144.392 30.456V32.9393C144.278 32.8995 144.097 32.8647 143.848 32.8349C143.604 32.8001 143.368 32.7827 143.14 32.7827C142.647 32.7827 142.205 32.8896 141.812 33.1033C141.424 33.3121 141.119 33.603 140.895 33.9759C140.671 34.3487 140.559 34.7788 140.559 35.266V42H137.86ZM150.785 42.2237C149.637 42.2237 148.645 41.9851 147.81 41.5078C146.979 41.0256 146.341 40.3445 145.893 39.4645C145.446 38.5795 145.222 37.538 145.222 36.3398C145.222 35.1616 145.446 34.1275 145.893 33.2376C146.346 32.3427 146.977 31.6467 147.787 31.1495C148.598 30.6474 149.55 30.3963 150.644 30.3963C151.35 30.3963 152.016 30.5107 152.642 30.7393C153.274 30.9631 153.83 31.3111 154.313 31.7834C154.8 32.2557 155.183 32.8572 155.461 33.5881C155.739 34.3139 155.879 35.179 155.879 36.1832V37.011H146.49V35.1914H153.291C153.286 34.6744 153.174 34.2145 152.955 33.8118C152.737 33.4041 152.431 33.0835 152.038 32.8498C151.65 32.6161 151.198 32.4993 150.681 32.4993C150.129 32.4993 149.644 32.6335 149.227 32.902C148.809 33.1655 148.483 33.5135 148.25 33.946C148.021 34.3736 147.904 34.8434 147.899 35.3555V36.9439C147.899 37.6101 148.021 38.1818 148.265 38.6591C148.508 39.1314 148.849 39.4943 149.286 39.7479C149.724 39.9964 150.236 40.1207 150.823 40.1207C151.215 40.1207 151.571 40.0661 151.889 39.9567C152.207 39.8423 152.483 39.6758 152.717 39.457C152.95 39.2383 153.127 38.9673 153.246 38.6442L155.767 38.9276C155.608 39.5937 155.304 40.1754 154.857 40.6726C154.415 41.1648 153.848 41.5476 153.157 41.821C152.466 42.0895 151.675 42.2237 150.785 42.2237Z" fill="white"/>
</svg>
