<svg width="195" height="54" viewBox="0 0 195 54" fill="none" xmlns="http://www.w3.org/2000/svg">
<rect x="0.5" y="0.5" width="193.81" height="53" rx="4.5" fill="black"/>
<rect x="0.5" y="0.5" width="193.81" height="53" rx="4.5" stroke="#A6A6A6"/>
<g clip-path="url(#clip0_73_43)">
<path d="M28.4493 26.2555L15.0508 40.2931C15.2012 40.8263 15.4716 41.3181 15.8413 41.7308C16.2109 42.1435 16.67 42.4663 17.1835 42.6743C17.697 42.8824 18.2513 42.9703 18.8039 42.9314C19.3566 42.8924 19.8931 42.7276 20.3723 42.4496L35.4481 33.8634L28.4493 26.2555Z" fill="#EA4335"/>
<path d="M41.9982 23.8694L35.4789 20.1353L28.1406 26.5748L35.5088 33.8432L41.9784 30.1491C42.5516 29.849 43.0316 29.3977 43.3666 28.8443C43.7015 28.2908 43.8786 27.6562 43.8786 27.0092C43.8786 26.3623 43.7015 25.7276 43.3666 25.1742C43.0316 24.6207 42.5516 24.1694 41.9784 23.8693L41.9982 23.8694Z" fill="#FBBC04"/>
<path d="M15.0506 13.6558C14.9696 13.9552 14.9293 14.2641 14.9307 14.5743V39.3745C14.9315 39.6845 14.9718 39.9932 15.0506 40.2931L28.9084 26.615L15.0506 13.6558Z" fill="#4285F4"/>
<path d="M28.5491 26.9745L35.4781 20.1354L20.4223 11.5092C19.8558 11.1774 19.2115 11.0017 18.5551 11C16.926 10.9968 15.4938 12.0781 15.0508 13.6458L28.5491 26.9745Z" fill="#34A853"/>
</g>
<path d="M55.4594 11.2102V10.2727H62.0049V11.2102H59.2606V19H58.2037V11.2102H55.4594ZM65.2947 19.1364C64.664 19.1364 64.1199 18.9972 63.6626 18.7188C63.208 18.4375 62.8572 18.0455 62.61 17.5426C62.3657 17.0369 62.2435 16.4489 62.2435 15.7784C62.2435 15.108 62.3657 14.517 62.61 14.0057C62.8572 13.4915 63.2009 13.0909 63.6412 12.804C64.0844 12.5142 64.6015 12.3693 65.1924 12.3693C65.5333 12.3693 65.8699 12.4261 66.2023 12.5398C66.5347 12.6534 66.8373 12.8381 67.11 13.0938C67.3827 13.3466 67.6001 13.6818 67.762 14.0994C67.9239 14.517 68.0049 15.0312 68.0049 15.642V16.0682H62.9594V15.1989H66.9822C66.9822 14.8295 66.9083 14.5 66.7606 14.2102C66.6157 13.9205 66.4083 13.6918 66.1384 13.5241C65.8714 13.3565 65.556 13.2727 65.1924 13.2727C64.7918 13.2727 64.4452 13.3722 64.1526 13.571C63.8628 13.767 63.6398 14.0227 63.4836 14.3381C63.3273 14.6534 63.2492 14.9915 63.2492 15.3523V15.9318C63.2492 16.4261 63.3344 16.8452 63.5049 17.1889C63.6782 17.5298 63.9182 17.7898 64.2251 17.9688C64.5319 18.1449 64.8884 18.233 65.2947 18.233C65.5589 18.233 65.7975 18.196 66.0106 18.1222C66.2265 18.0455 66.4126 17.9318 66.5688 17.7812C66.7251 17.6278 66.8458 17.4375 66.931 17.2102L67.9026 17.483C67.8003 17.8125 67.6285 18.1023 67.387 18.3523C67.1455 18.5994 66.8472 18.7926 66.4921 18.9318C66.137 19.0682 65.7378 19.1364 65.2947 19.1364ZM64.681 11.5682L65.7208 9.59091H66.8969L65.5674 11.5682H64.681ZM70.5404 10.2727V19H69.5347V10.2727H70.5404ZM75.1267 19.1364C74.496 19.1364 73.952 18.9972 73.4946 18.7188C73.04 18.4375 72.6892 18.0455 72.442 17.5426C72.1977 17.0369 72.0756 16.4489 72.0756 15.7784C72.0756 15.108 72.1977 14.517 72.442 14.0057C72.6892 13.4915 73.0329 13.0909 73.4733 12.804C73.9165 12.5142 74.4335 12.3693 75.0244 12.3693C75.3653 12.3693 75.702 12.4261 76.0344 12.5398C76.3667 12.6534 76.6693 12.8381 76.942 13.0938C77.2148 13.3466 77.4321 13.6818 77.594 14.0994C77.7559 14.517 77.8369 15.0312 77.8369 15.642V16.0682H72.7915V15.1989H76.8142C76.8142 14.8295 76.7403 14.5 76.5926 14.2102C76.4477 13.9205 76.2403 13.6918 75.9704 13.5241C75.7034 13.3565 75.3881 13.2727 75.0244 13.2727C74.6238 13.2727 74.2773 13.3722 73.9846 13.571C73.6949 13.767 73.4719 14.0227 73.3156 14.3381C73.1594 14.6534 73.0812 14.9915 73.0812 15.3523V15.9318C73.0812 16.4261 73.1665 16.8452 73.3369 17.1889C73.5102 17.5298 73.7503 17.7898 74.0571 17.9688C74.3639 18.1449 74.7204 18.233 75.1267 18.233C75.3909 18.233 75.6295 18.196 75.8426 18.1222C76.0585 18.0455 76.2446 17.9318 76.4008 17.7812C76.5571 17.6278 76.6778 17.4375 76.7631 17.2102L77.7346 17.483C77.6324 17.8125 77.4605 18.1023 77.219 18.3523C76.9775 18.5994 76.6792 18.7926 76.3241 18.9318C75.969 19.0682 75.5699 19.1364 75.1267 19.1364ZM74.5131 11.5682L75.5528 9.59091H76.729L75.3994 11.5682H74.5131ZM82.0258 19.1364C81.4122 19.1364 80.8838 18.9915 80.4406 18.7017C79.9974 18.4119 79.6565 18.0128 79.4179 17.5043C79.1792 16.9957 79.0599 16.4148 79.0599 15.7614C79.0599 15.0966 79.1821 14.5099 79.4264 14.0014C79.6736 13.4901 80.0173 13.0909 80.4577 12.804C80.9008 12.5142 81.4179 12.3693 82.0088 12.3693C82.469 12.3693 82.8838 12.4545 83.2531 12.625C83.6224 12.7955 83.925 13.0341 84.1608 13.3409C84.3966 13.6477 84.5429 14.0057 84.5997 14.4148H83.594C83.5173 14.1165 83.3469 13.8523 83.0827 13.6222C82.8213 13.3892 82.469 13.2727 82.0258 13.2727C81.6338 13.2727 81.29 13.375 80.9946 13.5795C80.702 13.7812 80.4733 14.0668 80.3085 14.4361C80.1466 14.8026 80.0656 15.233 80.0656 15.7273C80.0656 16.233 80.1452 16.6733 80.3042 17.0483C80.4662 17.4233 80.6934 17.7145 80.9861 17.9219C81.2815 18.1293 81.6281 18.233 82.0258 18.233C82.2872 18.233 82.5244 18.1875 82.7375 18.0966C82.9506 18.0057 83.1309 17.875 83.2787 17.7045C83.4264 17.5341 83.5315 17.3295 83.594 17.0909H84.5997C84.5429 17.4773 84.4023 17.8253 84.1778 18.1349C83.9562 18.4418 83.6622 18.6861 83.2957 18.8679C82.9321 19.0469 82.5088 19.1364 82.0258 19.1364ZM87.0756 15.0625V19H86.0699V10.2727H87.0756V13.4773H87.1608C87.3142 13.1392 87.5443 12.8707 87.8511 12.6719C88.1608 12.4702 88.5727 12.3693 89.0869 12.3693C89.5329 12.3693 89.9236 12.4588 90.2588 12.6378C90.594 12.8139 90.854 13.0852 91.0386 13.4517C91.2261 13.8153 91.3199 14.2784 91.3199 14.8409V19H90.3142V14.9091C90.3142 14.3892 90.1792 13.9872 89.9094 13.7031C89.6423 13.4162 89.2716 13.2727 88.7971 13.2727C88.4676 13.2727 88.1721 13.3423 87.9108 13.4815C87.6523 13.6207 87.4477 13.8239 87.2971 14.0909C87.1494 14.358 87.0756 14.6818 87.0756 15.0625ZM95.0858 19.1534C94.6711 19.1534 94.2947 19.0753 93.9566 18.919C93.6185 18.7599 93.3501 18.5312 93.1512 18.233C92.9523 17.9318 92.8529 17.5682 92.8529 17.142C92.8529 16.767 92.9268 16.4631 93.0745 16.2301C93.2222 15.9943 93.4197 15.8097 93.6668 15.6761C93.914 15.5426 94.1867 15.4432 94.485 15.3778C94.7861 15.3097 95.0887 15.2557 95.3927 15.2159C95.7904 15.1648 96.1128 15.1264 96.36 15.1009C96.61 15.0724 96.7918 15.0256 96.9055 14.9602C97.0219 14.8949 97.0802 14.7812 97.0802 14.6193V14.5852C97.0802 14.1648 96.9651 13.8381 96.735 13.6051C96.5077 13.3722 96.1626 13.2557 95.6995 13.2557C95.2194 13.2557 94.843 13.3608 94.5702 13.571C94.2975 13.7812 94.1057 14.0057 93.9949 14.2443L93.0404 13.9034C93.2108 13.5057 93.4381 13.196 93.7222 12.9744C94.0091 12.75 94.3216 12.5937 94.6597 12.5057C95.0006 12.4148 95.3358 12.3693 95.6654 12.3693C95.8756 12.3693 96.1171 12.3949 96.3898 12.446C96.6654 12.4943 96.931 12.5952 97.1867 12.7486C97.4452 12.902 97.6597 13.1335 97.8302 13.4432C98.0006 13.7528 98.0858 14.1676 98.0858 14.6875V19H97.0802V18.1136H97.029C96.9608 18.2557 96.8472 18.4077 96.6881 18.5696C96.529 18.7315 96.3174 18.8693 96.0532 18.983C95.789 19.0966 95.4665 19.1534 95.0858 19.1534ZM95.2393 18.25C95.637 18.25 95.9722 18.1719 96.2449 18.0156C96.5205 17.8594 96.7279 17.6577 96.8671 17.4105C97.0091 17.1634 97.0802 16.9034 97.0802 16.6307V15.7102C97.0376 15.7614 96.9438 15.8082 96.7989 15.8509C96.6569 15.8906 96.4921 15.9261 96.3046 15.9574C96.1199 15.9858 95.9395 16.0114 95.7634 16.0341C95.5901 16.054 95.4495 16.071 95.3415 16.0852C95.0802 16.1193 94.8358 16.1747 94.6086 16.2514C94.3841 16.3253 94.2023 16.4375 94.0631 16.5881C93.9268 16.7358 93.8586 16.9375 93.8586 17.1932C93.8586 17.5426 93.9878 17.8068 94.2464 17.9858C94.5077 18.1619 94.8387 18.25 95.2393 18.25ZM99.9214 19V12.4545H100.893V13.4432H100.961C101.081 13.1193 101.296 12.8565 101.609 12.6548C101.921 12.4531 102.274 12.3523 102.666 12.3523C102.74 12.3523 102.832 12.3537 102.943 12.3565C103.054 12.3594 103.137 12.3636 103.194 12.3693V13.392C103.16 13.3835 103.082 13.3707 102.96 13.3537C102.84 13.3338 102.714 13.3239 102.581 13.3239C102.262 13.3239 101.978 13.3906 101.728 13.5241C101.481 13.6548 101.285 13.8366 101.14 14.0696C100.998 14.2997 100.927 14.5625 100.927 14.858V19H99.9214ZM106.829 21.5909C106.343 21.5909 105.926 21.5284 105.576 21.4034C105.227 21.2812 104.936 21.1193 104.703 20.9176C104.473 20.7188 104.289 20.5057 104.153 20.2784L104.954 19.7159C105.045 19.8352 105.16 19.9716 105.299 20.125C105.438 20.2812 105.629 20.4162 105.87 20.5298C106.115 20.6463 106.434 20.7045 106.829 20.7045C107.358 20.7045 107.794 20.5767 108.137 20.321C108.481 20.0653 108.653 19.6648 108.653 19.1193V17.7898H108.568C108.494 17.9091 108.389 18.0568 108.252 18.233C108.119 18.4062 107.926 18.5611 107.673 18.6974C107.423 18.831 107.085 18.8977 106.659 18.8977C106.13 18.8977 105.656 18.7727 105.235 18.5227C104.818 18.2727 104.487 17.9091 104.242 17.4318C104.001 16.9545 103.88 16.375 103.88 15.6932C103.88 15.0227 103.998 14.4389 104.234 13.9418C104.47 13.4418 104.798 13.0554 105.218 12.7827C105.639 12.5071 106.125 12.3693 106.676 12.3693C107.102 12.3693 107.44 12.4403 107.69 12.5824C107.943 12.7216 108.136 12.8807 108.269 13.0597C108.406 13.2358 108.511 13.3807 108.585 13.4943H108.687V12.4545H109.659V19.1875C109.659 19.75 109.531 20.2074 109.275 20.5597C109.022 20.9148 108.681 21.1747 108.252 21.3395C107.826 21.5071 107.352 21.5909 106.829 21.5909ZM106.795 17.9943C107.198 17.9943 107.539 17.902 107.818 17.7173C108.096 17.5327 108.308 17.267 108.453 16.9205C108.598 16.5739 108.67 16.1591 108.67 15.6761C108.67 15.2045 108.599 14.7884 108.457 14.4276C108.315 14.0668 108.105 13.7841 107.826 13.5795C107.548 13.375 107.204 13.2727 106.795 13.2727C106.369 13.2727 106.014 13.3807 105.73 13.5966C105.448 13.8125 105.237 14.1023 105.095 14.4659C104.956 14.8295 104.886 15.233 104.886 15.6761C104.886 16.1307 104.957 16.5327 105.099 16.8821C105.244 17.2287 105.457 17.5014 105.738 17.7003C106.022 17.8963 106.375 17.9943 106.795 17.9943ZM114.244 19.1364C113.613 19.1364 113.069 18.9972 112.612 18.7188C112.157 18.4375 111.806 18.0455 111.559 17.5426C111.315 17.0369 111.193 16.4489 111.193 15.7784C111.193 15.108 111.315 14.517 111.559 14.0057C111.806 13.4915 112.15 13.0909 112.59 12.804C113.034 12.5142 113.551 12.3693 114.142 12.3693C114.483 12.3693 114.819 12.4261 115.152 12.5398C115.484 12.6534 115.786 12.8381 116.059 13.0938C116.332 13.3466 116.549 13.6818 116.711 14.0994C116.873 14.517 116.954 15.0312 116.954 15.642V16.0682H111.909V15.1989H115.931C115.931 14.8295 115.858 14.5 115.71 14.2102C115.565 13.9205 115.358 13.6918 115.088 13.5241C114.821 13.3565 114.505 13.2727 114.142 13.2727C113.741 13.2727 113.394 13.3722 113.102 13.571C112.812 13.767 112.589 14.0227 112.433 14.3381C112.277 14.6534 112.198 14.9915 112.198 15.3523V15.9318C112.198 16.4261 112.284 16.8452 112.454 17.1889C112.627 17.5298 112.867 17.7898 113.174 17.9688C113.481 18.1449 113.838 18.233 114.244 18.233C114.508 18.233 114.747 18.196 114.96 18.1222C115.176 18.0455 115.362 17.9318 115.518 17.7812C115.674 17.6278 115.795 17.4375 115.88 17.2102L116.852 17.483C116.75 17.8125 116.578 18.1023 116.336 18.3523C116.095 18.5994 115.796 18.7926 115.441 18.9318C115.086 19.0682 114.687 19.1364 114.244 19.1364ZM118.484 19V12.4545H119.456V13.4432H119.524C119.643 13.1193 119.859 12.8565 120.171 12.6548C120.484 12.4531 120.836 12.3523 121.228 12.3523C121.302 12.3523 121.394 12.3537 121.505 12.3565C121.616 12.3594 121.7 12.3636 121.757 12.3693V13.392C121.723 13.3835 121.644 13.3707 121.522 13.3537C121.403 13.3338 121.277 13.3239 121.143 13.3239C120.825 13.3239 120.541 13.3906 120.291 13.5241C120.044 13.6548 119.848 13.8366 119.703 14.0696C119.561 14.2997 119.49 14.5625 119.49 14.858V19H118.484ZM130.96 13.9205L130.057 14.1761C130 14.0256 129.916 13.8793 129.805 13.7372C129.697 13.5923 129.55 13.473 129.362 13.3793C129.175 13.2855 128.935 13.2386 128.642 13.2386C128.241 13.2386 127.908 13.331 127.641 13.5156C127.376 13.6974 127.244 13.929 127.244 14.2102C127.244 14.4602 127.335 14.6577 127.517 14.8026C127.699 14.9474 127.983 15.0682 128.369 15.1648L129.341 15.4034C129.926 15.5455 130.362 15.7628 130.649 16.0554C130.936 16.3452 131.079 16.7187 131.079 17.1761C131.079 17.5511 130.972 17.8864 130.756 18.1818C130.543 18.4773 130.244 18.7102 129.861 18.8807C129.477 19.0511 129.031 19.1364 128.523 19.1364C127.855 19.1364 127.302 18.9915 126.865 18.7017C126.427 18.4119 126.15 17.9886 126.034 17.4318L126.989 17.1932C127.079 17.5455 127.251 17.8097 127.504 17.9858C127.76 18.1619 128.094 18.25 128.506 18.25C128.974 18.25 129.347 18.1506 129.622 17.9517C129.9 17.75 130.04 17.5085 130.04 17.2273C130.04 17 129.96 16.8097 129.801 16.6562C129.642 16.5 129.398 16.3835 129.068 16.3068L127.977 16.0511C127.378 15.9091 126.937 15.6889 126.656 15.3906C126.378 15.0895 126.239 14.7131 126.239 14.2614C126.239 13.892 126.342 13.5653 126.55 13.2812C126.76 12.9972 127.045 12.7741 127.406 12.6122C127.77 12.4503 128.182 12.3693 128.642 12.3693C129.29 12.3693 129.798 12.5114 130.168 12.7955C130.54 13.0795 130.804 13.4545 130.96 13.9205ZM136.718 16.3239V12.4545H137.724V19H136.718V17.892H136.65C136.497 18.2244 136.258 18.5071 135.934 18.7401C135.61 18.9702 135.201 19.0852 134.707 19.0852C134.298 19.0852 133.934 18.9957 133.616 18.8168C133.298 18.6349 133.048 18.3622 132.866 17.9986C132.684 17.6321 132.593 17.1705 132.593 16.6136V12.4545H133.599V16.5455C133.599 17.0227 133.733 17.4034 134 17.6875C134.269 17.9716 134.613 18.1136 135.031 18.1136C135.281 18.1136 135.535 18.0497 135.794 17.9219C136.055 17.794 136.274 17.598 136.45 17.3338C136.629 17.0696 136.718 16.733 136.718 16.3239ZM139.566 19V12.4545H140.538V13.4432H140.606C140.725 13.1193 140.941 12.8565 141.253 12.6548C141.566 12.4531 141.918 12.3523 142.31 12.3523C142.384 12.3523 142.476 12.3537 142.587 12.3565C142.698 12.3594 142.782 12.3636 142.839 12.3693V13.392C142.805 13.3835 142.726 13.3707 142.604 13.3537C142.485 13.3338 142.359 13.3239 142.225 13.3239C141.907 13.3239 141.623 13.3906 141.373 13.5241C141.126 13.6548 140.93 13.8366 140.785 14.0696C140.643 14.2997 140.572 14.5625 140.572 14.858V19H139.566Z" fill="white"/>
<path d="M66.6178 31.6044C66.4935 31.2017 66.322 30.8413 66.1033 30.5231C65.8895 30.1999 65.6309 29.924 65.3277 29.6953C65.0294 29.4666 64.6863 29.2951 64.2986 29.1808C63.9108 29.0614 63.4882 29.0018 63.0308 29.0018C62.2105 29.0018 61.4797 29.2081 60.8383 29.6207C60.197 30.0334 59.6924 30.6399 59.3245 31.4403C58.9616 32.2358 58.7801 33.2053 58.7801 34.3487C58.7801 35.5021 58.9616 36.479 59.3245 37.2795C59.6874 38.0799 60.192 38.6889 60.8383 39.1065C61.4846 39.5192 62.2354 39.7255 63.0905 39.7255C63.866 39.7255 64.5372 39.5763 65.104 39.2781C65.6757 38.9798 66.1157 38.5572 66.4239 38.0103C66.7322 37.4585 66.8863 36.8121 66.8863 36.0714L67.5127 36.1683H63.3664V34.0057H69.5635V35.8402C69.5635 37.1477 69.2851 38.2788 68.7283 39.2333C68.1714 40.1879 67.4058 40.9237 66.4314 41.4407C65.4569 41.9528 64.3383 42.2088 63.0756 42.2088C61.6686 42.2088 60.4332 41.8931 59.3692 41.2617C58.3103 40.6254 57.4825 39.723 56.8859 38.5547C56.2943 37.3814 55.9985 35.9893 55.9985 34.3786C55.9985 33.1456 56.1725 32.0444 56.5205 31.0749C56.8735 30.1055 57.3657 29.2827 57.9971 28.6065C58.6285 27.9254 59.3692 27.4084 60.2194 27.0554C61.0695 26.6974 61.9942 26.5185 62.9935 26.5185C63.8387 26.5185 64.6267 26.6428 65.3575 26.8913C66.0883 27.1349 66.7371 27.483 67.3039 27.9354C67.8756 28.3878 68.3454 28.9247 68.7133 29.5462C69.0812 30.1676 69.3224 30.8537 69.4367 31.6044H66.6178ZM77.1159 42.2237C75.9973 42.2237 75.0279 41.9776 74.2076 41.4854C73.3873 40.9933 72.7509 40.3047 72.2985 39.4197C71.851 38.5348 71.6273 37.5007 71.6273 36.3175C71.6273 35.1342 71.851 34.0977 72.2985 33.2077C72.7509 32.3178 73.3873 31.6268 74.2076 31.1346C75.0279 30.6424 75.9973 30.3963 77.1159 30.3963C78.2346 30.3963 79.204 30.6424 80.0243 31.1346C80.8446 31.6268 81.4785 32.3178 81.926 33.2077C82.3784 34.0977 82.6046 35.1342 82.6046 36.3175C82.6046 37.5007 82.3784 38.5348 81.926 39.4197C81.4785 40.3047 80.8446 40.9933 80.0243 41.4854C79.204 41.9776 78.2346 42.2237 77.1159 42.2237ZM77.1309 40.0611C77.7374 40.0611 78.2445 39.8945 78.6522 39.5614C79.0598 39.2234 79.3631 38.771 79.562 38.2042C79.7658 37.6374 79.8677 37.006 79.8677 36.31C79.8677 35.609 79.7658 34.9751 79.562 34.4084C79.3631 33.8366 79.0598 33.3817 78.6522 33.0437C78.2445 32.7056 77.7374 32.5366 77.1309 32.5366C76.5094 32.5366 75.9924 32.7056 75.5797 33.0437C75.1721 33.3817 74.8663 33.8366 74.6625 34.4084C74.4636 34.9751 74.3642 35.609 74.3642 36.31C74.3642 37.006 74.4636 37.6374 74.6625 38.2042C74.8663 38.771 75.1721 39.2234 75.5797 39.5614C75.9924 39.8945 76.5094 40.0611 77.1309 40.0611ZM89.8923 42.2237C88.7737 42.2237 87.8042 41.9776 86.9839 41.4854C86.1636 40.9933 85.5273 40.3047 85.0748 39.4197C84.6274 38.5348 84.4037 37.5007 84.4037 36.3175C84.4037 35.1342 84.6274 34.0977 85.0748 33.2077C85.5273 32.3178 86.1636 31.6268 86.9839 31.1346C87.8042 30.6424 88.7737 30.3963 89.8923 30.3963C91.0109 30.3963 91.9804 30.6424 92.8007 31.1346C93.621 31.6268 94.2549 32.3178 94.7023 33.2077C95.1547 34.0977 95.3809 35.1342 95.3809 36.3175C95.3809 37.5007 95.1547 38.5348 94.7023 39.4197C94.2549 40.3047 93.621 40.9933 92.8007 41.4854C91.9804 41.9776 91.0109 42.2237 89.8923 42.2237ZM89.9072 40.0611C90.5138 40.0611 91.0209 39.8945 91.4285 39.5614C91.8362 39.2234 92.1395 38.771 92.3383 38.2042C92.5422 37.6374 92.6441 37.006 92.6441 36.31C92.6441 35.609 92.5422 34.9751 92.3383 34.4084C92.1395 33.8366 91.8362 33.3817 91.4285 33.0437C91.0209 32.7056 90.5138 32.5366 89.9072 32.5366C89.2858 32.5366 88.7687 32.7056 88.3561 33.0437C87.9484 33.3817 87.6427 33.8366 87.4388 34.4084C87.24 34.9751 87.1405 35.609 87.1405 36.31C87.1405 37.006 87.24 37.6374 87.4388 38.2042C87.6427 38.771 87.9484 39.2234 88.3561 39.5614C88.7687 39.8945 89.2858 40.0611 89.9072 40.0611ZM102.654 46.5341C101.684 46.5341 100.852 46.4023 100.156 46.1388C99.4595 45.8803 98.9002 45.5323 98.4776 45.0948C98.055 44.6573 97.7617 44.1726 97.5977 43.6406L100.029 43.0515C100.138 43.2752 100.297 43.4964 100.506 43.7152C100.715 43.9389 100.996 44.1229 101.349 44.267C101.707 44.4162 102.157 44.4908 102.699 44.4908C103.464 44.4908 104.098 44.3043 104.6 43.9315C105.102 43.5636 105.353 42.957 105.353 42.1119V39.9418H105.219C105.08 40.2202 104.876 40.506 104.608 40.7994C104.344 41.0927 103.994 41.3388 103.556 41.5376C103.124 41.7365 102.579 41.8359 101.923 41.8359C101.043 41.8359 100.245 41.6296 99.5291 41.217C98.8182 40.7994 98.2514 40.1779 97.8288 39.3526C97.4112 38.5224 97.2024 37.4833 97.2024 36.2354C97.2024 34.9776 97.4112 33.9162 97.8288 33.0511C98.2514 32.1811 98.8207 31.5224 99.5366 31.0749C100.252 30.6225 101.05 30.3963 101.93 30.3963C102.602 30.3963 103.153 30.5107 103.586 30.7393C104.023 30.9631 104.371 31.234 104.63 31.5522C104.888 31.8654 105.085 32.1612 105.219 32.4396H105.368V30.5455H108.031V42.1864C108.031 43.1658 107.797 43.9762 107.33 44.6175C106.862 45.2589 106.223 45.7386 105.413 46.0568C104.603 46.375 103.683 46.5341 102.654 46.5341ZM102.676 39.718C103.248 39.718 103.735 39.5788 104.138 39.3004C104.54 39.022 104.846 38.6218 105.055 38.0998C105.264 37.5778 105.368 36.9513 105.368 36.2205C105.368 35.4996 105.264 34.8683 105.055 34.3263C104.851 33.7844 104.548 33.3643 104.145 33.0661C103.748 32.7628 103.258 32.6112 102.676 32.6112C102.075 32.6112 101.572 32.7678 101.17 33.081C100.767 33.3942 100.464 33.8242 100.26 34.3711C100.056 34.913 99.9542 35.5295 99.9542 36.2205C99.9542 36.9215 100.056 37.5355 100.26 38.0625C100.469 38.5845 100.775 38.9922 101.177 39.2855C101.585 39.5739 102.085 39.718 102.676 39.718ZM113.497 26.7273V42H110.797V26.7273H113.497ZM121.344 42.2237C120.195 42.2237 119.204 41.9851 118.368 41.5078C117.538 41.0256 116.899 40.3445 116.452 39.4645C116.004 38.5795 115.781 37.538 115.781 36.3398C115.781 35.1616 116.004 34.1275 116.452 33.2376C116.904 32.3427 117.536 31.6467 118.346 31.1495C119.156 30.6474 120.108 30.3963 121.202 30.3963C121.908 30.3963 122.574 30.5107 123.201 30.7393C123.832 30.9631 124.389 31.3111 124.871 31.7834C125.358 32.2557 125.741 32.8572 126.02 33.5881C126.298 34.3139 126.437 35.179 126.437 36.1832V37.011H117.048V35.1914H123.85C123.845 34.6744 123.733 34.2145 123.514 33.8118C123.295 33.4041 122.989 33.0835 122.597 32.8498C122.209 32.6161 121.756 32.4993 121.239 32.4993C120.688 32.4993 120.203 32.6335 119.785 32.902C119.368 33.1655 119.042 33.5135 118.808 33.946C118.58 34.3736 118.463 34.8434 118.458 35.3555V36.9439C118.458 37.6101 118.58 38.1818 118.823 38.6591C119.067 39.1314 119.407 39.4943 119.845 39.7479C120.282 39.9964 120.794 40.1207 121.381 40.1207C121.774 40.1207 122.129 40.0661 122.448 39.9567C122.766 39.8423 123.042 39.6758 123.275 39.457C123.509 39.2383 123.685 38.9673 123.805 38.6442L126.325 38.9276C126.166 39.5937 125.863 40.1754 125.416 40.6726C124.973 41.1648 124.406 41.5476 123.715 41.821C123.024 42.0895 122.234 42.2237 121.344 42.2237ZM133.93 46.2955V30.5455H136.585V32.4396H136.741C136.881 32.1612 137.077 31.8654 137.331 31.5522C137.584 31.234 137.927 30.9631 138.36 30.7393C138.792 30.5107 139.344 30.3963 140.015 30.3963C140.9 30.3963 141.698 30.6225 142.409 31.0749C143.125 31.5224 143.692 32.1861 144.109 33.0661C144.532 33.9411 144.743 35.0149 144.743 36.2876C144.743 37.5455 144.537 38.6143 144.124 39.4943C143.712 40.3743 143.15 41.0455 142.439 41.5078C141.728 41.9702 140.923 42.2013 140.023 42.2013C139.366 42.2013 138.822 42.092 138.39 41.8732C137.957 41.6545 137.609 41.391 137.346 41.0827C137.087 40.7695 136.886 40.4737 136.741 40.1953H136.63V46.2955H133.93ZM136.577 36.2727C136.577 37.0135 136.682 37.6623 136.891 38.2191C137.104 38.7759 137.41 39.2109 137.808 39.5241C138.211 39.8324 138.698 39.9865 139.27 39.9865C139.866 39.9865 140.366 39.8274 140.768 39.5092C141.171 39.1861 141.474 38.7461 141.678 38.1893C141.887 37.6275 141.991 36.9886 141.991 36.2727C141.991 35.5618 141.89 34.9304 141.686 34.3786C141.482 33.8267 141.179 33.3942 140.776 33.081C140.373 32.7678 139.871 32.6112 139.27 32.6112C138.693 32.6112 138.203 32.7628 137.8 33.0661C137.398 33.3693 137.092 33.7944 136.883 34.3413C136.679 34.8881 136.577 35.532 136.577 36.2727ZM149.755 26.7273V42H147.055V26.7273H149.755ZM155.827 42.2312C155.101 42.2312 154.447 42.1019 153.866 41.8434C153.289 41.5799 152.831 41.1921 152.493 40.68C152.16 40.168 151.994 39.5366 151.994 38.7859C151.994 38.1396 152.113 37.6051 152.352 37.1825C152.59 36.7599 152.916 36.4219 153.329 36.1683C153.741 35.9148 154.206 35.7234 154.723 35.5941C155.245 35.4599 155.785 35.3629 156.341 35.3033C157.013 35.2337 157.557 35.1715 157.975 35.1168C158.392 35.0572 158.695 34.9677 158.884 34.8484C159.078 34.7241 159.175 34.5327 159.175 34.2741V34.2294C159.175 33.6676 159.009 33.2326 158.676 32.9244C158.342 32.6161 157.863 32.462 157.236 32.462C156.575 32.462 156.051 32.6062 155.663 32.8945C155.28 33.1829 155.021 33.5234 154.887 33.9162L152.367 33.5582C152.565 32.8622 152.894 32.2805 153.351 31.8132C153.808 31.3409 154.368 30.9879 155.029 30.7543C155.69 30.5156 156.421 30.3963 157.221 30.3963C157.773 30.3963 158.323 30.4609 158.869 30.5902C159.416 30.7195 159.916 30.9332 160.368 31.2315C160.821 31.5249 161.184 31.9251 161.457 32.4322C161.736 32.9393 161.875 33.5732 161.875 34.3338V42H159.28V40.4265H159.19C159.026 40.7447 158.795 41.043 158.497 41.3214C158.203 41.5948 157.833 41.8161 157.385 41.9851C156.943 42.1491 156.423 42.2312 155.827 42.2312ZM156.528 40.2475C157.07 40.2475 157.54 40.1406 157.937 39.9268C158.335 39.7081 158.641 39.4197 158.854 39.0618C159.073 38.7038 159.183 38.3136 159.183 37.891V36.5412C159.098 36.6108 158.954 36.6754 158.75 36.7351C158.551 36.7947 158.328 36.8469 158.079 36.8917C157.83 36.9364 157.584 36.9762 157.341 37.011C157.097 37.0458 156.886 37.0756 156.707 37.1005C156.304 37.1552 155.944 37.2447 155.625 37.369C155.307 37.4933 155.056 37.6673 154.872 37.891C154.688 38.1097 154.596 38.3931 154.596 38.7411C154.596 39.2383 154.778 39.6136 155.141 39.8672C155.504 40.1207 155.966 40.2475 156.528 40.2475ZM165.857 46.2955C165.489 46.2955 165.149 46.2656 164.835 46.206C164.527 46.1513 164.281 46.0866 164.097 46.0121L164.723 43.9091C165.116 44.0234 165.467 44.0781 165.775 44.0732C166.083 44.0682 166.354 43.9712 166.588 43.7823C166.826 43.5984 167.028 43.2901 167.192 42.8576L167.423 42.2386L163.269 30.5455H166.133L168.773 39.196H168.892L171.54 30.5455H174.411L169.824 43.3871C169.611 43.9936 169.327 44.5131 168.974 44.9457C168.621 45.3832 168.189 45.7163 167.677 45.945C167.169 46.1786 166.563 46.2955 165.857 46.2955Z" fill="white"/>
<defs>
<clipPath id="clip0_73_43">
<rect width="28.95" height="32" fill="white" transform="translate(14.9297 11)"/>
</clipPath>
</defs>
</svg>
